<svg width="32" height="32" viewBox="0 0 32 32" fill="none" xmlns="http://www.w3.org/2000/svg">
<path d="M26.875 3.25H4.375C2.51104 3.25 1 4.76104 1 6.625V26.875C1 28.739 2.51104 30.25 4.375 30.25H26.875C28.739 30.25 30.25 28.739 30.25 26.875V6.625C30.25 4.76104 28.739 3.25 26.875 3.25Z" stroke="white" stroke-width="1.5625" stroke-linejoin="round"/>
<path d="M18.4375 15.625C19.3695 15.625 20.125 14.8695 20.125 13.9375C20.125 13.0055 19.3695 12.25 18.4375 12.25C17.5055 12.25 16.75 13.0055 16.75 13.9375C16.75 14.8695 17.5055 15.625 18.4375 15.625Z" fill="white"/>
<path d="M24.0625 15.625C24.9945 15.625 25.75 14.8695 25.75 13.9375C25.75 13.0055 24.9945 12.25 24.0625 12.25C23.1305 12.25 22.375 13.0055 22.375 13.9375C22.375 14.8695 23.1305 15.625 24.0625 15.625Z" fill="white"/>
<path d="M18.4375 21.25C19.3695 21.25 20.125 20.4945 20.125 19.5625C20.125 18.6305 19.3695 17.875 18.4375 17.875C17.5055 17.875 16.75 18.6305 16.75 19.5625C16.75 20.4945 17.5055 21.25 18.4375 21.25Z" fill="white"/>
<path d="M24.0625 21.25C24.9945 21.25 25.75 20.4945 25.75 19.5625C25.75 18.6305 24.9945 17.875 24.0625 17.875C23.1305 17.875 22.375 18.6305 22.375 19.5625C22.375 20.4945 23.1305 21.25 24.0625 21.25Z" fill="white"/>
<path d="M7.1875 21.25C8.11948 21.25 8.875 20.4945 8.875 19.5625C8.875 18.6305 8.11948 17.875 7.1875 17.875C6.25552 17.875 5.5 18.6305 5.5 19.5625C5.5 20.4945 6.25552 21.25 7.1875 21.25Z" fill="white"/>
<path d="M12.8125 21.25C13.7445 21.25 14.5 20.4945 14.5 19.5625C14.5 18.6305 13.7445 17.875 12.8125 17.875C11.8805 17.875 11.125 18.6305 11.125 19.5625C11.125 20.4945 11.8805 21.25 12.8125 21.25Z" fill="white"/>
<path d="M7.1875 26.875C8.11948 26.875 8.875 26.1195 8.875 25.1875C8.875 24.2555 8.11948 23.5 7.1875 23.5C6.25552 23.5 5.5 24.2555 5.5 25.1875C5.5 26.1195 6.25552 26.875 7.1875 26.875Z" fill="white"/>
<path d="M12.8125 26.875C13.7445 26.875 14.5 26.1195 14.5 25.1875C14.5 24.2555 13.7445 23.5 12.8125 23.5C11.8805 23.5 11.125 24.2555 11.125 25.1875C11.125 26.1195 11.8805 26.875 12.8125 26.875Z" fill="white"/>
<path d="M18.4375 26.875C19.3695 26.875 20.125 26.1195 20.125 25.1875C20.125 24.2555 19.3695 23.5 18.4375 23.5C17.5055 23.5 16.75 24.2555 16.75 25.1875C16.75 26.1195 17.5055 26.875 18.4375 26.875Z" fill="white"/>
<path d="M6.625 1V3.25M24.625 1V3.25" stroke="white" stroke-width="1.5625" stroke-linecap="round" stroke-linejoin="round"/>
<path d="M30.25 8.875H1" stroke="white" stroke-width="1.5625" stroke-linejoin="round"/>
</svg>
