<svg width="152" height="100" viewBox="0 0 152 100" fill="none" xmlns="http://www.w3.org/2000/svg">
<circle cx="55" cy="50" r="50" fill="#FFEDBE"/>
<path d="M116 35H27.1779L10 76H98.8221L116 35Z" fill="#DC783B"/>
<path d="M27 35H115.822L133 76H44.1779L27 35Z" fill="#FFBD95"/>
<path d="M61 47H92.004L98 62H66.996L61 47Z" fill="#C6672E"/>
<path d="M27.0851 35C26.9353 50.9008 26.1947 69.6417 31 76H23.1702C18.4665 64.7207 22.1649 53.5864 27.0851 35Z" fill="#C6682E"/>
<path d="M91.5 0L98.8612 35.25H84.1388L91.5 0Z" fill="#0C610F"/>
<path d="M143.5 23L150.861 58.25H136.139L143.5 23Z" fill="#0C610F"/>
<path d="M66.5 16L73.8612 35.5H59.1388L66.5 16Z" fill="#0C610F"/>
<rect x="142" y="58" width="3" height="18" fill="#5C4033"/>
<path fill-rule="evenodd" clip-rule="evenodd" d="M148 78C148 76.8954 147.105 76 146 76H2C0.895431 76 0 76.8954 0 78C0 79.1046 0.895431 80 2 80H10C11.1046 80 12 80.8954 12 82C12 83.1046 11.1046 84 10 84H7C5.89543 84 5 84.8954 5 86C5 87.1046 5.89543 88 7 88H20C21.1046 88 22 88.8954 22 90C22 91.1046 21.1046 92 20 92H14C12.8954 92 12 92.8954 12 94C12 95.1046 12.8954 96 14 96H29C30.1046 96 31 96.8954 31 98C31 99.1046 31.8954 100 33 100H122C123.105 100 124 99.1046 124 98C124 96.8954 124.895 96 126 96H135C136.105 96 137 95.1046 137 94C137 92.8954 136.105 92 135 92H132C130.895 92 130 91.1046 130 90C130 88.8954 130.895 88 132 88H140C141.105 88 142 87.1046 142 86C142 84.8954 141.105 84 140 84H139C137.895 84 137 83.1046 137 82C137 80.8954 137.895 80 139 80H146C147.105 80 148 79.1046 148 78Z" fill="#837373"/>
</svg>
