<svg width="54" height="47" viewBox="0 0 54 47" fill="none" xmlns="http://www.w3.org/2000/svg">
<path opacity="0.2" d="M52.1429 17.0179C52.1429 32.9286 27.0714 46.4286 27.0714 46.4286C27.0714 46.4286 2 32.9286 2 17.0179C2 13.5653 3.37152 10.2542 5.81284 7.81284C8.25416 5.37152 11.5653 4 15.0179 4C20.4637 4 25.1284 6.96759 27.0714 11.7143C29.0145 6.96759 33.6792 4 39.125 4C42.5776 4 45.8887 5.37152 48.33 7.81284C50.7713 10.2542 52.1429 13.5653 52.1429 17.0179Z" fill="white" fill-opacity="0.51"/>
<path d="M39.0536 0C34.0754 0 29.7169 2.14071 27 5.7592C24.2831 2.14071 19.9246 0 14.9464 0C10.9838 0.00446642 7.18467 1.58061 4.38264 4.38264C1.58061 7.18467 0.00446642 10.9838 0 14.9464C0 31.8214 25.0208 45.4805 26.0863 46.0446C26.3672 46.1957 26.6811 46.2748 27 46.2748C27.3189 46.2748 27.6328 46.1957 27.9137 46.0446C28.9792 45.4805 54 31.8214 54 14.9464C53.9955 10.9838 52.4194 7.18467 49.6174 4.38264C46.8153 1.58061 43.0162 0.00446642 39.0536 0ZM27 42.1393C22.598 39.5743 3.85714 27.8896 3.85714 14.9464C3.86097 12.0065 5.03053 9.18816 7.10935 7.10935C9.18816 5.03053 12.0065 3.86097 14.9464 3.85714C19.6353 3.85714 23.572 6.35464 25.2161 10.3661C25.3614 10.7198 25.6085 11.0223 25.9262 11.2353C26.2438 11.4482 26.6176 11.5618 27 11.5618C27.3824 11.5618 27.7562 11.4482 28.0738 11.2353C28.3915 11.0223 28.6386 10.7198 28.7839 10.3661C30.428 6.34741 34.3647 3.85714 39.0536 3.85714C41.9935 3.86097 44.8118 5.03053 46.8907 7.10935C48.9695 9.18816 50.139 12.0065 50.1429 14.9464C50.1429 27.8703 31.3971 39.5719 27 42.1393Z" fill="black"/>
</svg>
