<svg width="68" height="75" viewBox="0 0 68 75" fill="none" xmlns="http://www.w3.org/2000/svg">
<path d="M25.336 66.7187V9.26562C25.336 4.70312 29.043 1 33.6055 1C38.1719 1 41.8789 4.70312 41.8789 9.26562V66.7187" stroke="white" stroke-width="0.511564" stroke-miterlimit="1.5" stroke-linecap="round" stroke-linejoin="round"/>
<path d="M41.8789 48.996C55.8711 48.4218 54.1758 42.246 53.6797 28.3398" stroke="white" stroke-width="0.511564" stroke-miterlimit="1.5" stroke-linecap="round" stroke-linejoin="round"/>
<path d="M42.0078 47.082C52.0039 46.2851 52.2539 43.1484 51.1328 29.1718" stroke="white" stroke-width="0.511564" stroke-miterlimit="1.5" stroke-linecap="round" stroke-linejoin="round"/>
<path d="M42.082 51.3398C58.0352 50.2656 56.3164 42.9179 55.8203 29.0117" stroke="white" stroke-width="0.511564" stroke-miterlimit="1.5" stroke-linecap="round" stroke-linejoin="round"/>
<path d="M44.7734 6.0313C57.875 10.2852 67.3203 22.1915 67.3203 36.1993C67.3203 53.7696 52.4609 68.0353 34.1601 68.0353C15.8594 68.0353 1 53.7696 1 36.1993C1 22.6212 9.87499 11.0157 22.3515 6.44536" stroke="white" stroke-width="0.511247" stroke-miterlimit="1.5" stroke-linecap="round" stroke-linejoin="round"/>
<path d="M41.9063 45.0938C41.9063 45.0938 48.6993 44.1758 48.6993 41.1211V33.1055C48.6993 30.4766 50.9024 28.3477 53.6212 28.3477C56.3399 28.3477 58.547 30.4766 58.547 33.1055C58.547 33.1055 58.5235 38.5664 58.547 41.2969C58.6368 53.6914 41.961 53.3047 41.961 53.3047" stroke="white" stroke-width="0.56819" stroke-miterlimit="1.5" stroke-linecap="round" stroke-linejoin="round"/>
<path d="M21.6921 68.3353L22.7233 68.6322L22.3171 70.0853L24.2077 69.0384L25.4108 69.3822L22.9421 70.7103L24.4733 73.4134L23.1765 73.054L22.0358 71.0384L21.5983 72.6165L20.5671 72.3197L21.6921 68.3353Z" fill="white"/>
<path d="M25.0679 69.2312L26.1304 69.45L25.2711 73.4969L24.2086 73.2781L25.0679 69.2312Z" fill="white"/>
<path d="M26.4055 69.5031L27.468 69.675L26.9524 72.9718L28.7961 73.2531L28.6711 74.05L25.7649 73.5968L26.4055 69.5031Z" fill="white"/>
<path d="M30.498 70.7018C30.1621 70.6822 29.8964 70.7877 29.7011 71.0143C29.5019 71.233 29.3886 71.5611 29.3574 71.9986C29.3339 72.4283 29.4043 72.7721 29.5605 73.0299C29.7168 73.2916 29.9589 73.4322 30.2949 73.4518C30.6152 73.4752 30.8769 73.3697 31.0761 73.1393C31.2714 72.9127 31.3808 72.5846 31.4043 72.1549C31.4355 71.7174 31.373 71.3736 31.2168 71.1236C31.0605 70.8658 30.8183 70.7252 30.498 70.7018ZM30.5449 69.9361C31.2011 69.9908 31.7011 70.2174 32.0449 70.6236C32.3964 71.0299 32.5488 71.5689 32.498 72.233C32.455 72.901 32.2324 73.4127 31.8261 73.7643C31.4277 74.1158 30.9043 74.2682 30.248 74.2174C29.58 74.1627 29.0683 73.9361 28.7168 73.5299C28.3613 73.1236 28.205 72.5885 28.248 71.9205C28.2988 71.2564 28.5293 70.7447 28.9355 70.3893C29.3418 70.0377 29.8769 69.8854 30.5449 69.9361Z" fill="white"/>
<path d="M37.4215 73.777C37.234 73.902 37.0348 73.9957 36.8277 74.0582C36.6168 74.1207 36.398 74.1637 36.1715 74.1832C35.484 74.2262 34.9215 74.0699 34.484 73.7145C34.0543 73.3629 33.8199 72.8551 33.7809 72.1988C33.7379 71.5348 33.9059 70.9957 34.2809 70.5895C34.6559 70.1754 35.1871 69.9449 35.8746 69.902C36.1012 69.8824 36.3199 69.8942 36.5309 69.9332C36.7496 69.9762 36.9605 70.0387 37.1715 70.1207L37.234 70.9488C37.023 70.8473 36.8199 70.7692 36.6246 70.7145C36.4371 70.6637 36.234 70.6481 36.0152 70.6676C35.6402 70.691 35.3473 70.8317 35.1402 71.0895C34.941 71.3395 34.859 71.6832 34.8902 72.1207C34.9215 72.5504 35.0504 72.8785 35.2809 73.1051C35.5191 73.3356 35.8277 73.441 36.2027 73.4176C36.4215 73.3981 36.6168 73.3512 36.7965 73.277C36.984 73.1949 37.1715 73.0817 37.359 72.9332L37.4215 73.777Z" fill="white"/>
<path d="M40.8553 72.7196L39.2146 73.0008L39.0896 73.7821L38.0271 73.9696L38.8396 69.6258L40.0896 69.4071L42.3084 73.2196L41.2459 73.4071L40.8553 72.7196ZM39.3396 72.1727L40.449 71.9852L39.6209 70.4696L39.3396 72.1727Z" fill="white"/>
<path d="M41.3643 69.1764L42.6768 68.7857L44.2081 70.6764L44.4893 68.2701L45.8018 67.8951L46.9581 71.8795L45.9893 72.1607L45.1456 69.2545L44.8487 71.6607L44.1925 71.8482L42.6456 69.9732L43.4893 72.8795L42.5206 73.1607L41.3643 69.1764Z" fill="white"/>
<path d="M45.8413 67.8311L47.482 67.1436C47.9702 66.9483 48.3882 66.9053 48.732 67.0186C49.0835 67.1241 49.3413 67.3741 49.4976 67.7686C49.6616 68.1749 49.6577 68.542 49.482 68.8624C49.314 69.1866 48.9859 69.4483 48.4976 69.6436L47.8413 69.9092L48.3882 71.2374L47.4038 71.6592L45.8413 67.8311ZM47.107 68.1124L47.5445 69.1905L48.107 68.9717C48.2945 68.8897 48.4195 68.7842 48.482 68.6592C48.5523 68.5264 48.5523 68.3702 48.482 68.1905C48.4077 68.0264 48.2984 67.917 48.1538 67.8624C48.0171 67.7999 47.857 67.8116 47.6695 67.8936L47.107 68.1124Z" fill="white"/>
<path d="M51.3251 65.4163L51.7314 66.1975C51.4814 66.2093 51.247 66.2405 51.0283 66.2913C50.8173 66.346 50.6259 66.4124 50.4501 66.4944C50.2314 66.6116 50.083 66.7288 49.997 66.8538C49.915 66.9788 49.9033 67.1038 49.9658 67.2288C50.0205 67.3343 50.0986 67.3968 50.2001 67.4163C50.3134 67.428 50.4736 67.4007 50.6845 67.3382L51.122 67.2132C51.5908 67.0882 51.9501 67.0725 52.2001 67.1663C52.458 67.2522 52.6689 67.4436 52.8251 67.7444C53.0322 68.1507 53.0634 68.5179 52.9189 68.8382C52.7705 69.1507 52.454 69.4319 51.9658 69.6819C51.7353 69.7991 51.4892 69.8968 51.2314 69.9788C50.9697 70.0647 50.7001 70.1194 50.4189 70.1507L49.997 69.3382C50.3095 69.3499 50.5908 69.3343 50.8408 69.2913C51.0908 69.2405 51.3173 69.1624 51.5283 69.0569C51.7353 68.9554 51.8759 68.8382 51.9501 68.7132C52.0322 68.5804 52.0439 68.4475 51.9814 68.3225C51.9189 68.1975 51.829 68.1311 51.7158 68.1194C51.5986 68.0999 51.4189 68.1155 51.1689 68.1663L50.7783 68.2757C50.3603 68.3811 50.0244 68.3929 49.7626 68.3069C49.5048 68.2249 49.3017 68.0335 49.1533 67.7288C48.9658 67.3655 48.9462 67.0257 49.0908 66.7132C49.2275 66.3929 49.5126 66.1155 49.9501 65.885C50.1572 65.7835 50.372 65.6936 50.5908 65.6194C50.8173 65.5491 51.0634 65.4788 51.3251 65.4163Z" fill="white"/>
<path d="M51.5278 65.1173L52.4653 64.5705L54.5747 68.133L53.6372 68.6798L51.5278 65.1173Z" fill="white"/>
<path d="M52.2962 64.7107L55.4525 62.5857L55.89 63.2576L54.7493 64.0232L56.6243 66.7888L55.7493 67.3826L53.8743 64.617L52.7337 65.3826L52.2962 64.7107Z" fill="white"/>
<path d="M55.121 62.7687L57.3866 60.9718L57.8866 61.5968L56.4648 62.7375L56.9491 63.3468L58.2773 62.2843L58.7773 62.9093L57.4491 63.9718L58.0429 64.7062L59.5116 63.5343L60.0116 64.175L57.6991 66.0031L55.121 62.7687Z" fill="white"/>
<path d="M59.401 59.1925L60.0104 59.8331C59.7682 59.919 59.5572 60.0167 59.3697 60.13C59.1744 60.2354 59.0026 60.3565 58.8541 60.4893C58.6783 60.669 58.569 60.8253 58.526 60.9581C58.4869 61.0948 58.5104 61.2159 58.6041 61.3175C58.6901 61.4034 58.7838 61.4386 58.8854 61.4268C58.9908 61.419 59.1354 61.3565 59.3229 61.2393L59.7291 60.9893C60.1237 60.7511 60.4518 60.6378 60.7135 60.6456C60.983 60.6456 61.2369 60.7706 61.4791 61.0206C61.7916 61.3565 61.9205 61.7003 61.8697 62.0518C61.8268 62.3956 61.6041 62.755 61.1979 63.13C61.0104 63.3097 60.7994 63.4698 60.5729 63.6143C60.3424 63.7628 60.0924 63.8917 59.8229 64.005L59.2135 63.3331C59.5065 63.2628 59.7643 63.169 59.9947 63.0518C60.233 62.9386 60.4362 62.8018 60.6041 62.6456C60.7799 62.4815 60.8854 62.3292 60.9166 62.1925C60.9557 62.0479 60.9244 61.9229 60.8229 61.8175C60.7291 61.7159 60.6237 61.6729 60.5104 61.6925C60.4049 61.7042 60.2369 61.7667 60.0104 61.88L59.6666 62.1143C59.3033 62.3253 58.9869 62.4229 58.7135 62.4112C58.4322 62.4034 58.1822 62.2784 57.9635 62.0362C57.6744 61.7354 57.5533 61.4112 57.6041 61.0675C57.6471 60.7237 57.8502 60.3878 58.2135 60.0518C58.3815 59.8956 58.5651 59.7472 58.7604 59.5987C58.9596 59.4542 59.1744 59.3175 59.401 59.1925Z" fill="white"/>
<path d="M25.0508 38.1015C11.0586 37.5273 12.7539 31.3515 13.25 17.4453" stroke="white" stroke-width="0.511564" stroke-miterlimit="1.5" stroke-linecap="round" stroke-linejoin="round"/>
<path d="M25.2109 36.2382C15.2148 35.4414 14.6758 32.2578 15.7969 18.2773" stroke="white" stroke-width="0.511564" stroke-miterlimit="1.5" stroke-linecap="round" stroke-linejoin="round"/>
<path d="M25.1875 40.5898C9.23438 39.5156 10.6133 32.0273 11.1094 18.1172" stroke="white" stroke-width="0.511564" stroke-miterlimit="1.5" stroke-linecap="round" stroke-linejoin="round"/>
<path d="M25.2148 34.2383C25.2148 34.2383 18.2304 33.2852 18.2304 30.2305V22.211C18.2304 19.586 16.0234 17.4531 13.3085 17.4531C10.5898 17.4531 8.38274 19.586 8.38274 22.211C8.38274 22.211 8.40618 27.6758 8.38274 30.4063C8.29289 42.8008 24.9687 42.4102 24.9687 42.4102" stroke="white" stroke-width="0.56819" stroke-miterlimit="1.5" stroke-linecap="round" stroke-linejoin="round"/>
<path d="M37.7617 2.12114V67.6993" stroke="white" stroke-width="0.568314" stroke-miterlimit="1.5" stroke-linecap="round" stroke-linejoin="round"/>
<path d="M33.75 1.13672V67.8202V2.54687" stroke="white" stroke-width="0.568404" stroke-miterlimit="1.5" stroke-linecap="round" stroke-linejoin="round"/>
<path d="M29.461 2.13673V67.4023" stroke="white" stroke-width="0.568595" stroke-miterlimit="1.5" stroke-linecap="round" stroke-linejoin="round"/>
<path d="M4.57814 50.5312C4.57814 50.5312 16.7188 45.5898 25.2383 50.5312" stroke="white" stroke-width="0.511564" stroke-miterlimit="1.5" stroke-linecap="round" stroke-linejoin="round"/>
<path d="M58.8008 41.7617C58.8008 41.7617 62.6758 39.875 66.7031 42.1601" stroke="white" stroke-width="0.511564" stroke-miterlimit="1.5" stroke-linecap="round" stroke-linejoin="round"/>
</svg>
