<svg width="59" height="81" viewBox="0 0 59 81" fill="none" xmlns="http://www.w3.org/2000/svg">
<rect x="8.16309" y="0.5" width="49.6393" height="76.9487" fill="#DC783B" stroke="black"/>
<path d="M44.9762 5.47009H1V80H52.9719V13.6752L44.9762 5.47009Z" fill="#FFBD95" stroke="black"/>
<path d="M44.9762 5.47009V13.6752H52.9719" stroke="black"/>
<path d="M33.8154 67.0086C33.8154 70.521 31.044 73.3462 27.6523 73.3462C24.2607 73.3462 21.4893 70.521 21.4893 67.0086C21.4893 63.4961 24.2607 60.671 27.6523 60.671C31.044 60.671 33.8154 63.4961 33.8154 67.0086Z" fill="#FFE500" stroke="black"/>
<rect x="10.3282" y="36.9231" width="22.6544" height="2.73504" rx="1.36752" fill="black"/>
<rect x="35.3153" y="36.9231" width="9.32829" height="2.73504" rx="1.36752" fill="black"/>
<rect x="9.32825" y="45.1282" width="7.99567" height="2.73504" rx="1.36752" fill="black"/>
<rect x="19.6566" y="45.1282" width="3.99784" height="2.73504" rx="1.36752" fill="black"/>
<rect x="25.9871" y="45.1282" width="18.6566" height="2.73504" rx="1.36752" fill="black"/>
<rect x="38.3131" y="66.0085" width="7.99567" height="2.73504" rx="1.36752" fill="black"/>
<rect x="38.3131" y="71.1111" width="11.9935" height="2.73504" rx="1.36752" fill="black"/>
<path d="M36.9805 61.1775L27.8426 69.7436L23.6544 65.8175L24.7281 64.8109L27.8426 67.7234L35.9068 60.171L36.9805 61.1775Z" fill="black"/>
<path d="M34.55 20.1072H34.182L32.7445 17.5443C32.4878 17.0886 32.0462 16.6981 31.4766 16.423C30.9069 16.1478 30.2352 16.0005 29.5475 16H22.6475C21.8486 15.9984 21.0736 16.1948 20.4549 16.5559C19.8362 16.9169 19.4121 17.4201 19.255 17.9797L18.657 20.1072H18.45C17.535 20.1072 16.6575 20.3668 16.0105 20.8289C15.3635 21.2911 15 21.9179 15 22.5714V25.0357C15 25.2536 15.1212 25.4625 15.3368 25.6165C15.5525 25.7706 15.845 25.8571 16.15 25.8571H17.3C17.3 26.5108 17.6635 27.1375 18.3105 27.5996C18.9575 28.0618 19.835 28.3214 20.75 28.3214C21.665 28.3214 22.5425 28.0618 23.1895 27.5996C23.8365 27.1375 24.2 26.5108 24.2 25.8571H28.8C28.8 26.5108 29.1635 27.1375 29.8105 27.5996C30.4575 28.0618 31.3351 28.3214 32.25 28.3214C33.1649 28.3214 34.0425 28.0618 34.6895 27.5996C35.3365 27.1375 35.7 26.5108 35.7 25.8571H36.85C37.155 25.8571 37.4475 25.7706 37.6632 25.6165C37.8788 25.4625 38 25.2536 38 25.0357V22.5714C38 21.9179 37.6365 21.2911 36.9895 20.8289C36.3425 20.3668 35.4649 20.1072 34.55 20.1072ZM27.65 17.6429H29.5475C29.7759 17.6443 29.9984 17.6944 30.1869 17.7865C30.3753 17.8787 30.521 18.0088 30.6055 18.1604L31.698 20.1072H27.65V17.6429ZM21.509 18.3C21.5628 18.1117 21.7073 17.9428 21.9174 17.8227C22.1275 17.7026 22.39 17.639 22.659 17.6429H25.35V20.1072H21.003L21.509 18.3ZM20.75 26.6786C20.5226 26.6786 20.3002 26.6304 20.1111 26.5402C19.922 26.4499 19.7746 26.3216 19.6875 26.1715C19.6005 26.0214 19.5777 25.8562 19.6221 25.6969C19.6665 25.5375 19.776 25.3912 19.9368 25.2763C20.0977 25.1615 20.3026 25.0832 20.5256 25.0515C20.7487 25.0198 20.98 25.036 21.1901 25.0982C21.4002 25.1604 21.5798 25.2657 21.7062 25.4008C21.8326 25.5359 21.9 25.6947 21.9 25.8571C21.9 26.075 21.7788 26.284 21.5632 26.438C21.3475 26.5921 21.055 26.6786 20.75 26.6786ZM32.25 26.6786C32.0225 26.6786 31.8002 26.6304 31.6111 26.5402C31.422 26.4499 31.2746 26.3216 31.1875 26.1715C31.1005 26.0214 31.0777 25.8562 31.1221 25.6969C31.1665 25.5375 31.2759 25.3912 31.4368 25.2763C31.5976 25.1615 31.8025 25.0832 32.0256 25.0515C32.2487 25.0198 32.48 25.036 32.6901 25.0982C32.9002 25.1604 33.0798 25.2657 33.2062 25.4008C33.3326 25.5359 33.4 25.6947 33.4 25.8571C33.4 26.075 33.2788 26.284 33.0632 26.438C32.8475 26.5921 32.555 26.6786 32.25 26.6786ZM35.7 24.2143H34.803C34.4796 23.9602 34.0855 23.7571 33.6459 23.6182C33.2062 23.4793 32.7307 23.4075 32.25 23.4075C31.7693 23.4075 31.2938 23.4793 30.8541 23.6182C30.4145 23.7571 30.0204 23.9602 29.697 24.2143H23.303C22.9796 23.9602 22.5855 23.7571 22.1458 23.6182C21.7062 23.4793 21.2308 23.4075 20.75 23.4075C20.2692 23.4075 19.7938 23.4793 19.3542 23.6182C18.9145 23.7571 18.5204 23.9602 18.197 24.2143H17.3V22.5714C17.3 22.3536 17.4212 22.1446 17.6368 21.9906C17.8525 21.8366 18.145 21.75 18.45 21.75H34.55C34.855 21.75 35.1475 21.8366 35.3632 21.9906C35.5788 22.1446 35.7 22.3536 35.7 22.5714V24.2143Z" fill="black"/>
<path d="M34.55 20.1072H34.182L32.7445 17.5443C32.4878 17.0886 32.0462 16.6981 31.4766 16.423C30.9069 16.1478 30.2352 16.0005 29.5475 16H22.6475C21.8486 15.9984 21.0736 16.1948 20.4549 16.5559C19.8362 16.9169 19.4121 17.4201 19.255 17.9797L18.657 20.1072H18.45C17.535 20.1072 16.6575 20.3668 16.0105 20.8289C15.3635 21.2911 15 21.9179 15 22.5714V25.0357C15 25.2536 15.1212 25.4625 15.3368 25.6165C15.5525 25.7706 15.845 25.8571 16.15 25.8571H17.3C17.3 26.5108 17.6635 27.1375 18.3105 27.5996C18.9575 28.0618 19.835 28.3214 20.75 28.3214C21.665 28.3214 22.5425 28.0618 23.1895 27.5996C23.8365 27.1375 24.2 26.5108 24.2 25.8571H28.8C28.8 26.5108 29.1635 27.1375 29.8105 27.5996C30.4575 28.0618 31.3351 28.3214 32.25 28.3214C33.1649 28.3214 34.0425 28.0618 34.6895 27.5996C35.3365 27.1375 35.7 26.5108 35.7 25.8571H36.85C37.155 25.8571 37.4475 25.7706 37.6632 25.6165C37.8788 25.4625 38 25.2536 38 25.0357V22.5714C38 21.9179 37.6365 21.2911 36.9895 20.8289C36.3425 20.3668 35.4649 20.1072 34.55 20.1072ZM27.65 17.6429H29.5475C29.7759 17.6443 29.9984 17.6944 30.1869 17.7865C30.3753 17.8787 30.521 18.0088 30.6055 18.1604L31.698 20.1072H27.65V17.6429ZM21.509 18.3C21.5628 18.1117 21.7073 17.9428 21.9174 17.8227C22.1275 17.7026 22.39 17.639 22.659 17.6429H25.35V20.1072H21.003L21.509 18.3ZM20.75 26.6786C20.5226 26.6786 20.3002 26.6304 20.1111 26.5402C19.922 26.4499 19.7746 26.3216 19.6875 26.1715C19.6005 26.0214 19.5777 25.8562 19.6221 25.6969C19.6665 25.5375 19.776 25.3912 19.9368 25.2763C20.0977 25.1615 20.3026 25.0832 20.5256 25.0515C20.7487 25.0198 20.98 25.036 21.1901 25.0982C21.4002 25.1604 21.5798 25.2657 21.7062 25.4008C21.8326 25.5359 21.9 25.6947 21.9 25.8571C21.9 26.075 21.7788 26.284 21.5632 26.438C21.3475 26.5921 21.055 26.6786 20.75 26.6786ZM32.25 26.6786C32.0225 26.6786 31.8002 26.6304 31.6111 26.5402C31.422 26.4499 31.2746 26.3216 31.1875 26.1715C31.1005 26.0214 31.0777 25.8562 31.1221 25.6969C31.1665 25.5375 31.2759 25.3912 31.4368 25.2763C31.5976 25.1615 31.8025 25.0832 32.0256 25.0515C32.2487 25.0198 32.48 25.036 32.6901 25.0982C32.9002 25.1604 33.0798 25.2657 33.2062 25.4008C33.3326 25.5359 33.4 25.6947 33.4 25.8571C33.4 26.075 33.2788 26.284 33.0632 26.438C32.8475 26.5921 32.555 26.6786 32.25 26.6786ZM35.7 24.2143H34.803C34.4796 23.9602 34.0855 23.7571 33.6459 23.6182C33.2062 23.4793 32.7307 23.4075 32.25 23.4075C31.7693 23.4075 31.2938 23.4793 30.8541 23.6182C30.4145 23.7571 30.0204 23.9602 29.697 24.2143H23.303C22.9796 23.9602 22.5855 23.7571 22.1458 23.6182C21.7062 23.4793 21.2308 23.4075 20.75 23.4075C20.2692 23.4075 19.7938 23.4793 19.3542 23.6182C18.9145 23.7571 18.5204 23.9602 18.197 24.2143H17.3V22.5714C17.3 22.3536 17.4212 22.1446 17.6368 21.9906C17.8525 21.8366 18.145 21.75 18.45 21.75H34.55C34.855 21.75 35.1475 21.8366 35.3632 21.9906C35.5788 22.1446 35.7 22.3536 35.7 22.5714V24.2143Z" fill="black" fill-opacity="0.2"/>
<path fill-rule="evenodd" clip-rule="evenodd" d="M17.3075 23.3219C17.3132 22.5224 17.3167 22.4323 17.3459 22.3625C17.4367 22.1433 17.6708 21.9424 17.9499 21.8441C18.2329 21.7444 17.4623 21.7522 26.5746 21.7561C34.2255 21.7594 34.7477 21.761 34.8403 21.7816C35.213 21.8645 35.499 22.0553 35.6279 22.3072L35.6758 22.401L35.6804 23.3026L35.685 24.2043H35.2479H34.8109L34.7307 24.1454C34.4912 23.9693 34.0942 23.7659 33.7701 23.6532C33.2824 23.4836 32.8067 23.4069 32.2428 23.407C31.5525 23.4071 30.935 23.5368 30.3563 23.8034C30.1911 23.8795 29.9335 24.029 29.7996 24.1263L29.6923 24.2043H26.5015H23.3108L23.2306 24.1454C22.9911 23.9693 22.5941 23.7659 22.27 23.6532C21.7824 23.4836 21.3066 23.407 20.7427 23.407C20.0524 23.4071 19.435 23.5368 18.8562 23.8034C18.691 23.8795 18.4334 24.029 18.2995 24.1263L18.1922 24.2044H17.746H17.2998L17.3075 23.3219Z" fill="#FF3333" stroke="black" stroke-width="0.0446457" stroke-miterlimit="10" stroke-linejoin="bevel"/>
<path fill-rule="evenodd" clip-rule="evenodd" d="M27.6707 18.8653V17.6465L28.7506 17.6582C29.8293 17.6698 29.8309 17.67 30.0732 17.7717C30.2066 17.8277 30.3731 17.9354 30.4432 18.0111C30.5459 18.122 31.6349 19.9994 31.6349 20.0656C31.6349 20.0757 30.7429 20.084 29.6528 20.084H27.6707V18.8653Z" fill="#FF3333" stroke="black" stroke-width="0.126277" stroke-miterlimit="10" stroke-linejoin="bevel"/>
<path fill-rule="evenodd" clip-rule="evenodd" d="M21.0637 20.0365C21.0637 19.9054 21.5777 18.1846 21.6445 18.0925C21.7607 17.9319 22.1088 17.7369 22.3598 17.6918C22.495 17.6675 23.1231 17.6517 23.9577 17.6517H25.3329V18.8678V20.084H23.1983C21.4752 20.084 21.0637 20.0749 21.0637 20.0365Z" fill="#FF3333" stroke="black" stroke-width="0.126277" stroke-miterlimit="10" stroke-linejoin="bevel"/>
<path fill-rule="evenodd" clip-rule="evenodd" d="M20.378 26.6145C19.7692 26.4643 19.4534 25.9418 19.7241 25.5327C19.8429 25.3533 20.0429 25.2103 20.2946 25.1249C20.564 25.0335 20.9474 25.0327 21.211 25.1232C21.4695 25.2117 21.7062 25.3907 21.7988 25.5675C22.1328 26.2051 21.2762 26.8362 20.378 26.6145Z" fill="#FF3333" stroke="black" stroke-width="0.0892913" stroke-miterlimit="10" stroke-linejoin="bevel"/>
<path fill-rule="evenodd" clip-rule="evenodd" d="M20.3945 26.5626C19.8312 26.4001 19.5528 25.9451 19.7863 25.5686C19.9573 25.293 20.3432 25.1125 20.7617 25.1125C21.0587 25.1125 21.2798 25.1809 21.4952 25.3391C22.0005 25.7105 21.8483 26.2948 21.183 26.5375C20.9695 26.6153 20.6162 26.6266 20.3945 26.5626Z" fill="white" stroke="black" stroke-width="0.0892913" stroke-miterlimit="10" stroke-linejoin="bevel"/>
<path fill-rule="evenodd" clip-rule="evenodd" d="M31.878 26.6145C31.2692 26.4643 30.9534 25.9418 31.2241 25.5327C31.3429 25.3533 31.5429 25.2103 31.7946 25.1249C32.064 25.0335 32.4474 25.0327 32.711 25.1232C32.9695 25.2117 33.2062 25.3907 33.2989 25.5675C33.6328 26.2051 32.7762 26.8362 31.878 26.6145Z" fill="white" stroke="black" stroke-width="0.0892913" stroke-miterlimit="10" stroke-linejoin="bevel"/>
</svg>
