<svg width="85" height="106" viewBox="0 0 85 106" fill="none" xmlns="http://www.w3.org/2000/svg">
<path d="M81.9547 87.4334V82.3984C81.9547 82.1191 81.8432 81.8511 81.6447 81.6536C81.4462 81.4561 81.177 81.3451 80.8963 81.3451H79.3406L76.6313 76.4787C76.5523 76.3472 76.448 76.2327 76.3243 76.1416L70.4823 71.9283V68.1363C70.4832 67.9763 70.4474 67.8182 70.3777 67.674C70.3081 67.5298 70.2063 67.4033 70.0802 67.3041L67.1803 65.0184C66.9941 64.8697 66.7629 64.7881 66.5242 64.7867H63.4338L62.7353 60.9631C62.6992 60.7661 62.6075 60.5834 62.4708 60.4364L59.6556 57.4133L60.4917 55.1276C60.5842 54.8756 60.5766 54.5979 60.4704 54.3512C60.3642 54.1046 60.1674 53.9076 59.9202 53.8004L47.2202 48.3231L45.7491 44.4784V40.697C45.7528 40.5554 45.7238 40.4149 45.6644 40.2862L40.5103 28.4256L41.1453 26.7824C41.2182 26.6105 41.2439 26.4223 41.2197 26.2372C41.1955 26.0521 41.1224 25.8768 41.0078 25.7291L37.0602 20.652C36.8983 20.444 36.6641 20.3037 36.4036 20.2589C36.1431 20.214 35.8752 20.2679 35.6526 20.4098L33.6841 21.6632L32.975 21.1787L30.4879 11.0667C30.4781 11.0036 30.4565 10.9429 30.4244 10.8876L26.1911 1.51295C26.1212 1.35699 26.0142 1.22029 25.8794 1.11463C25.7446 1.00896 25.586 0.9375 25.4173 0.906404C25.2486 0.875307 25.0748 0.885506 24.9109 0.936122C24.747 0.986738 24.598 1.07625 24.4766 1.19695L22.5504 3.06135C22.415 3.20811 22.317 3.38513 22.2647 3.57749L20.6772 10.6559L19.4707 20.5467V27.7304L16.1475 38.4534L13.8509 39.5067L10.8558 38.2532L7.61734 35.0932C7.49215 34.9796 7.3443 34.8934 7.18342 34.8404L1.51076 33.1867C1.35149 33.1392 1.18321 33.1297 1.01957 33.1589C0.855919 33.1882 0.701505 33.2555 0.568841 33.3552C0.4374 33.4533 0.330718 33.5806 0.25724 33.7268C0.183762 33.8731 0.145508 34.0344 0.145508 34.1979L0.632342 86.8646C0.632342 87.1439 0.743844 87.4118 0.94232 87.6094C1.1408 87.8069 1.40999 87.9179 1.69068 87.9179H16.3274V103.328C16.3274 103.608 16.4389 103.875 16.6374 104.073C16.8359 104.271 17.1051 104.381 17.3858 104.381H59.5286C59.7344 104.379 59.9356 104.321 60.1107 104.213L63.3915 102.033L68.8737 102.886L72.1333 105.351C72.2847 105.46 72.4624 105.527 72.6482 105.545C72.8341 105.564 73.0216 105.533 73.1917 105.456L76.0915 104.013C76.2384 103.941 76.3665 103.836 76.4657 103.706C76.5649 103.576 76.6324 103.425 76.663 103.265L77.0123 101.422L83.9338 99.8943C84.0729 99.8646 84.2045 99.8074 84.3209 99.726C84.4373 99.6445 84.536 99.5405 84.6111 99.4203C84.6857 99.3004 84.7354 99.1669 84.7572 99.0276C84.779 98.8883 84.7725 98.746 84.7381 98.6092L81.9547 87.4334ZM75.9539 99.5467C75.753 99.5924 75.5699 99.6955 75.427 99.8433C75.2841 99.9911 75.1877 100.177 75.1496 100.379L74.758 102.391L72.9271 103.307L69.9426 101.063C69.8051 100.955 69.6404 100.886 69.4663 100.863L63.3068 99.8943H63.1481C62.937 99.8938 62.7306 99.9562 62.5554 100.073L59.2005 102.296H18.4441V86.8435C18.4441 86.5641 18.3326 86.2962 18.1341 86.0987C17.9356 85.9011 17.6664 85.7902 17.3858 85.7902H2.73843L2.28334 35.6304L6.33676 36.8312L9.51176 39.8964C9.60389 39.9852 9.71147 40.0566 9.82926 40.1071L13.4488 41.666C13.5895 41.7318 13.7431 41.7659 13.8985 41.7659C14.054 41.7659 14.2076 41.7318 14.3483 41.666L17.5233 40.1071C17.6496 40.0425 17.7616 39.9532 17.8525 39.8446C17.9434 39.736 18.0114 39.6104 18.0525 39.4751L21.5556 28.1728C21.5894 28.0744 21.6073 27.9713 21.6085 27.8674V20.6942L22.7621 11.0667L24.2649 4.38855L24.8999 3.76709L28.4559 11.6566L30.9642 22.1899C31.0293 22.4506 31.1921 22.6767 31.4193 22.8219L33.1126 23.8752C33.2831 23.9841 33.4815 24.042 33.6841 24.042C33.8867 24.042 34.0851 23.9841 34.2556 23.8752L35.9701 22.8219L38.9652 26.6876L38.3725 28.1728C38.2667 28.4293 38.2667 28.7169 38.3725 28.9734L43.5901 41.034V44.668C43.5924 44.7943 43.6175 44.9192 43.6642 45.0367L45.3469 49.4818C45.3966 49.615 45.4728 49.7369 45.571 49.8401C45.6692 49.9433 45.7874 50.0256 45.9184 50.0822L58.1633 55.3488L57.4225 57.2975C57.361 57.4767 57.3491 57.6692 57.3883 57.8545C57.4274 58.0399 57.516 58.2114 57.6448 58.3508L60.7139 61.6267L61.55 66.0086C61.5951 66.2539 61.7262 66.4754 61.92 66.6336C62.1138 66.7918 62.3577 66.8764 62.6083 66.8723H66.2278L68.4292 68.6103V72.4234C68.4287 72.5896 68.4678 72.7535 68.5432 72.9018C68.6187 73.0501 68.7283 73.1785 68.8631 73.2766L74.9591 77.7111L77.8589 82.9146C77.9517 83.0788 78.087 83.2153 78.2508 83.3098C78.4147 83.4043 78.6009 83.4533 78.7903 83.4518H79.8486V87.5703C79.8388 87.6578 79.8388 87.7461 79.8486 87.8336L82.4732 98.072L75.9539 99.5467Z" fill="black"/>
</svg>
