<svg width="35" height="44" viewBox="0 0 35 44" fill="none" xmlns="http://www.w3.org/2000/svg">
<rect x="12.7433" y="35.3523" width="1.23321" height="5.34393" rx="0.616607" fill="white"/>
<rect x="20.1425" y="34.9409" width="1.23321" height="8.22143" rx="0.616607" fill="white"/>
<rect x="16.0319" y="31.6523" width="1.23321" height="11.51" rx="0.616607" fill="white"/>
<path d="M33.5292 14.915C33.9155 14.6272 34.2021 14.2257 34.3488 13.7667C34.4954 13.3078 34.4947 12.8145 34.3469 12.356C34.199 11.8974 33.9113 11.4967 33.5242 11.2099C33.137 10.9231 32.6699 10.7647 32.1882 10.7568L22.8323 10.4034C22.7863 10.4002 22.7422 10.3838 22.7053 10.3561C22.6684 10.3285 22.6403 10.2907 22.6244 10.2475L19.3914 1.51529C19.2289 1.07103 18.9339 0.687418 18.5462 0.416387C18.1586 0.145356 17.697 0 17.2239 0C16.7509 0 16.2893 0.145356 15.9016 0.416387C15.5139 0.687418 15.2189 1.07103 15.0565 1.51529L11.8339 10.2786C11.818 10.3219 11.7899 10.3597 11.753 10.3873C11.7161 10.415 11.672 10.4314 11.626 10.4346L2.2701 10.788C1.78838 10.7959 1.3212 10.9543 0.934072 11.2411C0.546941 11.5279 0.25927 11.9286 0.111394 12.3872C-0.0364807 12.8457 -0.0371442 13.339 0.109497 13.7979C0.256138 14.2568 0.542731 14.6584 0.929089 14.9462L8.26826 20.7157C8.30499 20.7446 8.33245 20.7836 8.34723 20.8279C8.36201 20.8723 8.36347 20.92 8.35143 20.9651L5.82534 29.9156C5.69444 30.3714 5.70712 30.8564 5.86166 31.3047C6.0162 31.7531 6.30509 32.1429 6.68904 32.4212C7.07299 32.6995 7.53335 32.8528 8.0075 32.8602C8.48165 32.8676 8.94656 32.7287 9.33899 32.4625L17.094 27.2648C17.1322 27.2384 17.1775 27.2243 17.2239 27.2243C17.2704 27.2243 17.3157 27.2384 17.3539 27.2648L25.1089 32.4625C25.496 32.7378 25.9592 32.8857 26.4343 32.8857C26.9093 32.8857 27.3726 32.7378 27.7597 32.4625C28.1437 32.1868 28.4329 31.7989 28.5874 31.3521C28.7419 30.9053 28.7542 30.4216 28.6225 29.9676L26.0756 20.9859C26.0621 20.9408 26.0629 20.8927 26.0778 20.848C26.0927 20.8034 26.121 20.7644 26.1588 20.7364L33.5292 14.915Z" fill="white"/>
</svg>
