<svg width="84" height="105" viewBox="0 0 84 105" fill="none" xmlns="http://www.w3.org/2000/svg">
<rect x="31" y="86" width="3" height="13" rx="1.5" fill="#DA7639"/>
<rect x="49" y="85" width="3" height="20" rx="1.5" fill="#DA7639"/>
<rect x="39" y="77" width="3" height="28" rx="1.5" fill="#DA7639"/>
<path d="M81.5653 36.2832C82.5052 35.5831 83.2023 34.6063 83.5591 33.4899C83.9158 32.3735 83.9142 31.1734 83.5545 30.058C83.1947 28.9425 82.4949 27.9676 81.5531 27.27C80.6114 26.5723 79.4749 26.1869 78.303 26.1678L55.5433 25.308C55.4314 25.3002 55.3241 25.2603 55.2344 25.193C55.1446 25.1257 55.0763 25.0339 55.0375 24.9286L47.1728 3.6862C46.7776 2.60546 46.0599 1.67226 45.1168 1.01293C44.1737 0.353602 43.0508 0 41.9001 0C40.7494 0 39.6264 0.353602 38.6833 1.01293C37.7403 1.67226 37.0225 2.60546 36.6274 3.6862L28.7879 25.0045C28.7492 25.1098 28.6808 25.2016 28.5911 25.2689C28.5013 25.3362 28.3941 25.3761 28.2822 25.3838L5.5224 26.2437C4.35053 26.2628 3.21405 26.6482 2.27229 27.3458C1.33052 28.0435 0.630716 29.0184 0.270985 30.1338C-0.0887455 31.2493 -0.0903594 32.4493 0.26637 33.5657C0.623099 34.6821 1.32028 35.6589 2.26016 36.3591L20.1139 50.3943C20.2033 50.4646 20.2701 50.5596 20.306 50.6674C20.342 50.7753 20.3455 50.8913 20.3162 51.0012L14.1711 72.7747C13.8527 73.8835 13.8835 75.0634 14.2595 76.154C14.6354 77.2446 15.3382 78.1929 16.2722 78.87C17.2062 79.547 18.3261 79.9199 19.4796 79.9378C20.633 79.9558 21.764 79.618 22.7187 78.9704L41.584 66.3261C41.6769 66.2619 41.7872 66.2276 41.9001 66.2276C42.013 66.2276 42.1233 66.2619 42.2162 66.3261L61.0815 78.9704C62.0232 79.6402 63.1502 80 64.3058 80C65.4614 80 66.5883 79.6402 67.5301 78.9704C68.4643 78.2998 69.1678 77.3561 69.5437 76.2692C69.9196 75.1823 69.9494 74.0057 69.6291 72.9012L63.4333 51.0518C63.4005 50.9421 63.4023 50.825 63.4385 50.7163C63.4747 50.6077 63.5436 50.5129 63.6356 50.4449L81.5653 36.2832Z" fill="#DC783B"/>
</svg>
