<svg width="79" height="80" viewBox="0 0 79 80" fill="none" xmlns="http://www.w3.org/2000/svg">
<mask id="path-1-inside-1_9_96" fill="white">
<path fill-rule="evenodd" clip-rule="evenodd" d="M0 53.1051L53.1051 4.19184e-06L61.1863 8.08118C60.306 8.96146 59.9483 10.2922 60.1919 11.7807C60.4355 13.2691 61.2604 14.7934 62.4851 16.0181C63.7098 17.2428 65.2341 18.0677 66.7225 18.3113C68.211 18.5548 69.5417 18.1971 70.422 17.3169L78.5032 25.3981L25.3981 78.5032L0 53.1051ZM8.08121 61.1863C8.96148 60.306 10.2922 59.9483 11.7807 60.1919C13.2691 60.4355 14.7934 61.2603 16.0181 62.4851C17.2428 63.7098 18.0677 65.234 18.3113 66.7225C18.5548 68.2109 18.1972 69.5417 17.3169 70.422L12.699 65.8041L8.08121 61.1863Z"/>
</mask>
<path fill-rule="evenodd" clip-rule="evenodd" d="M0 53.1051L53.1051 4.19184e-06L61.1863 8.08118C60.306 8.96146 59.9483 10.2922 60.1919 11.7807C60.4355 13.2691 61.2604 14.7934 62.4851 16.0181C63.7098 17.2428 65.2341 18.0677 66.7225 18.3113C68.211 18.5548 69.5417 18.1971 70.422 17.3169L78.5032 25.3981L25.3981 78.5032L0 53.1051ZM8.08121 61.1863C8.96148 60.306 10.2922 59.9483 11.7807 60.1919C13.2691 60.4355 14.7934 61.2603 16.0181 62.4851C17.2428 63.7098 18.0677 65.234 18.3113 66.7225C18.5548 68.2109 18.1972 69.5417 17.3169 70.422L12.699 65.8041L8.08121 61.1863Z" fill="url(#paint0_linear_9_96)"/>
<path d="M53.1051 4.19184e-06L53.8122 -0.707104L53.1051 -1.41421L52.398 -0.707103L53.1051 4.19184e-06ZM0 53.1051L-0.707107 52.398L-1.41421 53.1051L-0.707107 53.8122L0 53.1051ZM61.1863 8.08118L61.8934 8.78829L62.6005 8.08118L61.8934 7.37407L61.1863 8.08118ZM60.1919 11.7807L59.205 11.9421L60.1919 11.7807ZM70.422 17.3169L71.1291 16.6097L70.422 15.9026L69.7149 16.6097L70.422 17.3169ZM78.5032 25.3981L79.2103 26.1052L79.9174 25.3981L79.2103 24.691L78.5032 25.3981ZM25.3981 78.5032L24.691 79.2103L25.3981 79.9174L26.1052 79.2103L25.3981 78.5032ZM11.7807 60.1919L11.6192 61.1788L11.6192 61.1788L11.7807 60.1919ZM8.08121 61.1863L7.3741 60.4792L6.667 61.1863L7.3741 61.8934L8.08121 61.1863ZM16.0181 62.4851L16.7252 61.7779L16.0181 62.4851ZM18.3113 66.7225L19.2982 66.561L19.2982 66.561L18.3113 66.7225ZM17.3169 70.422L16.6098 71.1291L17.3169 71.8362L18.024 71.1291L17.3169 70.422ZM12.699 65.8041L11.9919 66.5112L12.699 65.8041ZM52.398 -0.707103L-0.707107 52.398L0.707107 53.8122L53.8122 0.707111L52.398 -0.707103ZM61.8934 7.37407L53.8122 -0.707104L52.398 0.707112L60.4792 8.78829L61.8934 7.37407ZM61.1788 11.6192C60.9748 10.3725 61.2902 9.39151 61.8934 8.78829L60.4792 7.37408C59.3219 8.5314 58.9219 10.2119 59.205 11.9421L61.1788 11.6192ZM63.1922 15.311C62.0928 14.2116 61.3837 12.8713 61.1788 11.6192L59.205 11.9421C59.4873 13.667 60.4279 15.3752 61.778 16.7252L63.1922 15.311ZM66.884 17.3244C65.6319 17.1195 64.2916 16.4104 63.1922 15.311L61.778 16.7252C63.128 18.0752 64.8362 19.0159 66.561 19.2981L66.884 17.3244ZM69.7149 16.6097C69.1117 17.213 68.1307 17.5284 66.884 17.3244L66.561 19.2981C68.2913 19.5813 69.9718 19.1813 71.1291 18.024L69.7149 16.6097ZM79.2103 24.691L71.1291 16.6097L69.7149 18.024L77.7961 26.1052L79.2103 24.691ZM26.1052 79.2103L79.2103 26.1052L77.7961 24.691L24.691 77.7961L26.1052 79.2103ZM-0.707107 53.8122L24.691 79.2103L26.1052 77.7961L0.707107 52.398L-0.707107 53.8122ZM11.9422 59.205C10.2119 58.9219 8.53143 59.3219 7.3741 60.4792L8.78832 61.8934C9.39154 61.2902 10.3725 60.9748 11.6192 61.1788L11.9422 59.205ZM16.7252 61.7779C15.3752 60.4279 13.667 59.4873 11.9422 59.205L11.6192 61.1788C12.8713 61.3836 14.2116 62.0927 15.311 63.1922L16.7252 61.7779ZM19.2982 66.561C19.0159 64.8362 18.0752 63.128 16.7252 61.7779L15.311 63.1922C16.4104 64.2916 17.1195 65.6319 17.3244 66.884L19.2982 66.561ZM18.024 71.1291C19.1813 69.9717 19.5813 68.2912 19.2982 66.561L17.3244 66.884C17.5284 68.1307 17.213 69.1116 16.6098 69.7149L18.024 71.1291ZM11.9919 66.5112L16.6098 71.1291L18.024 69.7149L13.4062 65.097L11.9919 66.5112ZM7.3741 61.8934L11.9919 66.5112L13.4062 65.097L8.78832 60.4792L7.3741 61.8934Z" fill="black" mask="url(#path-1-inside-1_9_96)"/>
<path d="M23.7714 43.1872C25.0601 44.4759 24.3368 46.2015 23.8141 46.9032L31.6 54.6891C32.6495 53.6396 34.5146 54.2803 35.3159 54.7318L54.7318 35.3159C53.6579 34.242 54.2559 32.3911 54.6891 31.5999L46.9032 23.814C45.6438 25.0735 43.9012 24.3103 43.1872 23.7713L23.7714 43.1872Z" fill="#FFE600" stroke="black"/>
<rect x="11.2675" y="48.0255" width="3.13469" height="5.48571" transform="rotate(-45 11.2675 48.0255)" fill="black"/>
<rect x="9.32805" y="46.086" width="3.13469" height="1.37143" transform="rotate(-45 9.32805 46.086)" fill="black"/>
<rect x="16.1162" y="52.8741" width="3.13469" height="5.48571" transform="rotate(-45 16.1162 52.8741)" fill="black"/>
<rect x="20.9651" y="57.723" width="3.13469" height="5.48571" transform="rotate(-45 20.9651 57.723)" fill="black"/>
<rect x="25.8137" y="62.5717" width="3.13469" height="5.48571" transform="rotate(-45 25.8137 62.5717)" fill="black"/>
<rect x="30.6624" y="67.4204" width="3.13469" height="4.11428" transform="rotate(-45 30.6624 67.4204)" fill="black"/>
<rect x="45.8089" y="13.4841" width="3.13469" height="5.48571" transform="rotate(-45 45.8089 13.4841)" fill="black"/>
<rect x="43.8694" y="11.5446" width="3.13469" height="1.37143" transform="rotate(-45 43.8694 11.5446)" fill="black"/>
<rect x="50.6576" y="18.3328" width="3.13469" height="5.48571" transform="rotate(-45 50.6576 18.3328)" fill="black"/>
<rect x="55.5064" y="23.1816" width="3.13469" height="5.48571" transform="rotate(-45 55.5064 23.1816)" fill="black"/>
<rect x="60.3551" y="28.0303" width="3.13469" height="5.48571" transform="rotate(-45 60.3551 28.0303)" fill="black"/>
<rect x="65.2038" y="32.879" width="3.13469" height="4.11428" transform="rotate(-45 65.2038 32.879)" fill="black"/>
<mask id="path-16-inside-2_9_96" fill="white">
<path fill-rule="evenodd" clip-rule="evenodd" d="M0 44.0817H75.102V55.5102C73.8571 55.5102 72.6632 56.1983 71.7829 57.423C70.9026 58.6477 70.4081 60.3088 70.4081 62.0408C70.4081 63.7729 70.9026 65.4339 71.7829 66.6587C72.6632 67.8834 73.8571 68.5714 75.102 68.5714V80H0V62.0408L2.89099e-06 68.5714C1.24489 68.5714 2.4388 67.8834 3.31907 66.6587C4.19934 65.4339 4.69387 63.7729 4.69387 62.0408C4.69387 60.3088 4.19934 58.6477 3.31907 57.423C2.4388 56.1983 1.24489 55.5102 0 55.5102V44.0817Z"/>
</mask>
<path fill-rule="evenodd" clip-rule="evenodd" d="M0 44.0817H75.102V55.5102C73.8571 55.5102 72.6632 56.1983 71.7829 57.423C70.9026 58.6477 70.4081 60.3088 70.4081 62.0408C70.4081 63.7729 70.9026 65.4339 71.7829 66.6587C72.6632 67.8834 73.8571 68.5714 75.102 68.5714V80H0V62.0408L2.89099e-06 68.5714C1.24489 68.5714 2.4388 67.8834 3.31907 66.6587C4.19934 65.4339 4.69387 63.7729 4.69387 62.0408C4.69387 60.3088 4.19934 58.6477 3.31907 57.423C2.4388 56.1983 1.24489 55.5102 0 55.5102V44.0817Z" fill="url(#paint1_linear_9_96)"/>
<path d="M75.102 44.0817H76.102V43.0817H75.102V44.0817ZM0 44.0817V43.0817H-1V44.0817H0ZM75.102 55.5102V56.5102L76.102 56.5102V55.5102H75.102ZM71.7829 57.423L70.9709 56.8394L71.7829 57.423ZM75.102 68.5714H76.102V67.5714H75.102V68.5714ZM75.102 80V81H76.102V80H75.102ZM0 80H-1V81H0V80ZM2.89099e-06 68.5714H-0.999997L-0.999997 69.5714H2.89099e-06V68.5714ZM3.31907 66.6587L4.13109 67.2423L3.31907 66.6587ZM3.31907 57.423L2.50705 58.0066H2.50705L3.31907 57.423ZM0 55.5102H-1V56.5102H0V55.5102ZM75.102 43.0817H0V45.0817H75.102V43.0817ZM76.102 55.5102V44.0817H74.102V55.5102H76.102ZM72.5949 58.0066C73.3322 56.9809 74.2489 56.5102 75.102 56.5102V54.5102C73.4652 54.5102 71.9941 55.4157 70.9709 56.8394L72.5949 58.0066ZM71.4081 62.0408C71.4081 60.486 71.8544 59.0369 72.5949 58.0066L70.9709 56.8394C69.9508 58.2586 69.4081 60.1316 69.4081 62.0408H71.4081ZM72.5949 66.075C71.8544 65.0448 71.4081 63.5957 71.4081 62.0408H69.4081C69.4081 63.9501 69.9508 65.8231 70.9709 67.2423L72.5949 66.075ZM75.102 67.5714C74.2489 67.5714 73.3322 67.1008 72.5949 66.075L70.9709 67.2423C71.9941 68.666 73.4653 69.5714 75.102 69.5714V67.5714ZM76.102 80V68.5714H74.102V80H76.102ZM0 81H75.102V79H0V81ZM-1 62.0408V80H1V62.0408H-1ZM1 68.5714L1 62.0408H-1L-0.999997 68.5714H1ZM2.50705 66.075C1.76977 67.1008 0.853086 67.5714 2.89099e-06 67.5714V69.5714C1.6367 69.5714 3.10783 68.666 4.13109 67.2423L2.50705 66.075ZM3.69387 62.0408C3.69387 63.5957 3.24754 65.0448 2.50705 66.075L4.13109 67.2423C5.15114 65.8231 5.69387 63.9501 5.69387 62.0408H3.69387ZM2.50705 58.0066C3.24754 59.0369 3.69387 60.486 3.69387 62.0408H5.69387C5.69387 60.1316 5.15114 58.2586 4.13108 56.8394L2.50705 58.0066ZM0 56.5102C0.853084 56.5102 1.76977 56.9809 2.50705 58.0066L4.13108 56.8394C3.10782 55.4157 1.6367 54.5102 0 54.5102V56.5102ZM-1 44.0817V55.5102H1V44.0817H-1Z" fill="black" mask="url(#path-16-inside-2_9_96)"/>
<path d="M23.8219 53.8776C23.8219 55.7001 22.0903 56.4088 21.2245 56.5354V67.5463C22.7087 67.5463 23.5745 69.3181 23.8219 70.2041H51.2801C51.2801 68.6853 53.0117 67.7994 53.8775 67.5463V56.5354C52.0964 56.5354 51.4038 54.7635 51.2801 53.8776H23.8219Z" fill="#FFE600" stroke="black"/>
<rect x="11.5592" y="48.4572" width="3.13469" height="5.48571" fill="black"/>
<rect x="11.5592" y="45.7143" width="3.13469" height="1.37143" fill="black"/>
<rect x="11.5592" y="55.3142" width="3.13469" height="5.48571" fill="black"/>
<rect x="11.5592" y="62.1716" width="3.13469" height="5.48571" fill="black"/>
<rect x="11.5592" y="69.0285" width="3.13469" height="5.48571" fill="black"/>
<rect x="11.5592" y="75.8857" width="3.13469" height="4.11428" fill="black"/>
<rect x="60.4081" y="48.4572" width="3.13469" height="5.48571" fill="black"/>
<rect x="60.4081" y="45.7143" width="3.13469" height="1.37143" fill="black"/>
<rect x="60.4081" y="55.3142" width="3.13469" height="5.48571" fill="black"/>
<rect x="60.4081" y="62.1716" width="3.13469" height="5.48571" fill="black"/>
<rect x="60.4081" y="69.0285" width="3.13469" height="5.48571" fill="black"/>
<rect x="60.4081" y="75.8857" width="3.13469" height="4.11428" fill="black"/>
<defs>
<linearGradient id="paint0_linear_9_96" x1="31.7476" y1="43.2922" x2="31.7476" y2="43.2922" gradientUnits="userSpaceOnUse">
<stop offset="1" stop-color="#DA7639"/>
<stop offset="1" stop-color="#FF5C00"/>
</linearGradient>
<linearGradient id="paint1_linear_9_96" x1="29.3877" y1="59.5919" x2="29.3877" y2="59.5919" gradientUnits="userSpaceOnUse">
<stop offset="1" stop-color="#DB773A"/>
<stop offset="1" stop-color="#FF5C00"/>
</linearGradient>
</defs>
</svg>
